<svg width="76" height="76" viewBox="0 0 76 76" fill="none" xmlns="http://www.w3.org/2000/svg">
<g filter="url(#filter0_d_1052_116)">
<rect x="4" y="4" width="68" height="68" rx="34" fill="white" shape-rendering="crispEdges"/>
<path d="M45.5 33.5C45.5 31.4285 44.66 29.5535 43.304 28.1975C41.9465 26.84 40.0715 26 38 26C35.9285 26 34.0535 26.84 32.696 28.1975C31.34 29.5535 30.5 31.4285 30.5 33.5C30.5 35.5715 31.34 37.4465 32.696 38.8025C34.0535 40.16 35.9285 41 38 41C40.0715 41 41.9465 40.16 43.304 38.8025C44.0013 38.1069 44.5542 37.2804 44.9311 36.3704C45.308 35.4604 45.5013 34.4849 45.5 33.5ZM29 48.5C29 50 32.375 51.5 38 51.5C43.277 51.5 47 50 47 48.5C47 45.5 43.469 42.5 38 42.5C32.375 42.5 29 45.5 29 48.5Z" fill="#005EFF"/>
</g>
<defs>
<filter id="filter0_d_1052_116" x="0" y="0" width="76" height="76" filterUnits="userSpaceOnUse" color-interpolation-filters="sRGB">
<feFlood flood-opacity="0" result="BackgroundImageFix"/>
<feColorMatrix in="SourceAlpha" type="matrix" values="0 0 0 0 0 0 0 0 0 0 0 0 0 0 0 0 0 0 127 0" result="hardAlpha"/>
<feOffset/>
<feGaussianBlur stdDeviation="2"/>
<feComposite in2="hardAlpha" operator="out"/>
<feColorMatrix type="matrix" values="0 0 0 0 0 0 0 0 0 0 0 0 0 0 0 0 0 0 0.25 0"/>
<feBlend mode="normal" in2="BackgroundImageFix" result="effect1_dropShadow_1052_116"/>
<feBlend mode="normal" in="SourceGraphic" in2="effect1_dropShadow_1052_116" result="shape"/>
</filter>
</defs>
</svg>
