<svg width="232" height="46" viewBox="0 0 232 46" fill="none" xmlns="http://www.w3.org/2000/svg">
<path d="M24.8427 29.7138C19.1062 34.9375 13.3795 40.2063 7.66255 45.4661C6.00533 46.8037 3.6813 45.439 4.28928 43.4598L12.693 28.2678C13.203 27.3279 12.693 26.4875 11.585 26.3519C8.41761 25.9723 4.43637 26.6953 1.17097 26.3157C0.111921 25.8006 -0.417613 24.6619 0.396287 23.731C8.59412 16.4197 16.4585 8.80112 24.8819 1.70671C25.3134 1.34521 25.5487 0.766823 25.9214 0.477624C27.4217 -0.670135 29.7261 0.396274 29.4025 2.13147C29.2358 3.04425 27.4119 6.12602 26.8333 7.21052C26.6568 7.54491 26.3038 7.75277 26.1273 8.08716C24.3328 11.4491 22.7148 14.8924 20.6653 18.1368C20.4202 18.6701 20.6163 19.2123 21.0478 19.6099C22.0382 20.2516 29.5692 19.5015 31.501 19.8178C33.4328 20.1341 33.2955 21.8603 32.2266 23.0803C30.2654 25.3307 27.0981 27.6352 24.8231 29.7048L24.8427 29.7138Z" fill="white"/>
<path d="M49.18 26.76C50.48 27.57 53.03 28.47 55.14 28.47C57.74 28.47 58.9 27.38 58.9 25.85C58.9 24.32 57.94 23.46 55.06 22.44C50.49 20.87 48.58 18.38 48.6 15.62C48.6 11.51 52.02 8.31 57.47 8.31C60.04 8.31 62.3 8.94999 63.67 9.70999L62.5 13.86C61.52 13.3 59.63 12.52 57.56 12.52C55.49 12.52 54.29 13.56 54.29 15C54.29 16.44 55.42 17.2 58.37 18.27C62.62 19.77 64.59 21.94 64.61 25.39C64.61 29.65 61.29 32.73 55.12 32.73C52.29 32.73 49.72 32.05 48 31.09L49.19 26.79L49.18 26.76Z" fill="white"/>
<path d="M69.48 16.57C69.48 13.54 69.39 11.02 69.29 8.81998H74.48L74.7701 12.41H74.87C76.59 9.76997 79.3101 8.28998 82.8801 8.28998C88.2401 8.28998 92.68 12.88 92.68 20.17C92.68 28.65 87.38 32.71 82.05 32.71C79.11 32.71 76.67 31.48 75.48 29.59H75.3801V41.69H69.47V16.56L69.48 16.57ZM75.39 22.41C75.39 22.98 75.44 23.52 75.55 24.02C76.15 26.42 78.2301 28.15 80.7401 28.15C84.4901 28.15 86.69 25.04 86.69 20.45C86.69 16.31 84.6801 12.95 80.8801 12.95C78.4501 12.95 76.2101 14.73 75.6001 17.33C75.4801 17.8 75.39 18.33 75.39 18.82V22.41Z" fill="white"/>
<path d="M110.71 32.2L110.31 29.6H110.17C108.75 31.44 106.31 32.73 103.28 32.73C98.54 32.73 95.91 29.34 95.91 25.78C95.91 19.88 101.16 16.9 109.77 16.93V16.54C109.77 15 109.16 12.45 105.02 12.47C102.73 12.47 100.33 13.21 98.74 14.21L97.57 10.38C99.34 9.30997 102.36 8.31 106.04 8.31C113.54 8.31 115.67 13.04 115.67 18.16V26.58C115.67 28.7 115.78 30.77 116.03 32.21H110.7L110.71 32.2ZM109.93 20.75C105.76 20.69 101.77 21.57 101.77 25.13C101.77 27.42 103.27 28.5 105.14 28.5C107.5 28.5 109.2 26.98 109.76 25.27C109.89 24.86 109.93 24.4 109.93 23.99V20.76V20.75Z" fill="white"/>
<path d="M121.94 16.34C121.94 13.21 121.88 10.91 121.75 8.82999H126.87L127.09 13.27H127.26C128.41 9.97999 131.14 8.29999 133.66 8.29999C134.24 8.29999 134.57 8.31999 135.05 8.42999V13.99C134.54 13.88 134.03 13.82 133.32 13.82C130.51 13.82 128.55 15.61 128.02 18.29C127.92 18.81 127.87 19.44 127.87 20.07V32.19H121.96V16.33L121.94 16.34Z" fill="white"/>
<path d="M154.23 28.97H154.12C152.75 31.23 150.3 32.73 146.88 32.73C141.64 32.73 137.1 28.16 137.1 20.87C137.1 12.32 142.57 8.31 147.54 8.31C150.83 8.31 153.1 9.71998 154.35 11.92H154.45L154.62 8.84H160.3C160.21 10.97 160.13 13.17 160.13 15.59V41.71H154.22V28.98L154.23 28.97ZM154.23 18.47C154.23 17.99 154.19 17.47 154.08 17.03C153.56 14.83 151.67 12.94 149.03 12.94C145.24 12.94 143.1 16.16 143.1 20.6C143.1 25.04 145.14 28.06 148.92 28.06C151.29 28.06 153.28 26.52 153.96 24.17C154.14 23.63 154.23 22.93 154.23 22.38V18.48V18.47Z" fill="white"/>
<path d="M187.4 25.2C187.4 27.98 187.49 30.3 187.59 32.2H182.43L182.14 28.67H182C181.01 30.31 178.7 32.7299 174.51 32.7299C170.32 32.7299 166.37 30.1699 166.37 22.5399V8.83997H172.28V21.56C172.28 25.44 173.51 27.93 176.64 27.93C179 27.93 180.54 26.28 181.15 24.77C181.35 24.26 181.47 23.6299 181.47 22.9399V8.83997H187.38V25.21L187.4 25.2Z" fill="white"/>
<path d="M197.96 22.15C198.12 26.39 201.39 28.24 205.18 28.24C207.9 28.24 209.84 27.81 211.63 27.16L212.51 31.23C210.51 32.08 207.73 32.71 204.34 32.71C196.75 32.71 192.31 28.02 192.31 20.86C192.31 14.41 196.22 8.31 203.74 8.31C211.26 8.31 213.81 14.56 213.81 19.68C213.81 20.78 213.71 21.66 213.6 22.16H197.97L197.96 22.15ZM208.24 18.03C208.27 15.87 207.32 12.34 203.37 12.34C199.73 12.34 198.22 15.64 197.96 18.03H208.25H208.24Z" fill="white"/>
<path d="M218.57 16.34C218.57 13.21 218.5 10.91 218.38 8.82999H223.5L223.72 13.27H223.89C225.04 9.97999 227.77 8.29999 230.29 8.29999C230.87 8.29999 231.21 8.31999 231.68 8.42999V13.99C231.18 13.88 230.66 13.82 229.95 13.82C227.14 13.82 225.18 15.61 224.65 18.29C224.55 18.81 224.5 19.44 224.5 20.07V32.19H218.59V16.33L218.57 16.34Z" fill="white"/>
</svg>
